<svg xmlns="http://www.w3.org/2000/svg" width="640" height="240" viewBox="0 0 640 240">
  <defs>
    <linearGradient id="bg" x1="0" y1="0" x2="0" y2="1">
      <stop offset="0" stop-color="#f2f0eb"/>
      <stop offset="1" stop-color="#e4e0d6"/>
    </linearGradient>
    <linearGradient id="coach" x1="0" y1="0" x2="1" y2="0">
      <stop offset="0" stop-color="#4a4a4a"/>
      <stop offset="1" stop-color="#1c1c1c"/>
    </linearGradient>
  </defs>
  <rect width="640" height="240" fill="url(#bg)"/>
  <rect y="196" width="640" height="44" fill="#d6d2c8"/>
  <rect x="70" y="152" width="462" height="34" rx="6" fill="#2e2e2e"/>
  <rect x="70" y="168" width="458" height="8" rx="4" fill="#1c1c1c"/>
  <path d="M112 128 h318 c22 0 28 12 28 24 h-346 z" fill="url(#coach)"/>
  <path d="M446 130 h20 l4 22 h-24 z" fill="#e8e4da"/>
  <rect x="138" y="130" width="58" height="20" rx="9" fill="#f1ede3"/>
  <rect x="210" y="130" width="58" height="20" rx="9" fill="#f1ede3"/>
  <rect x="282" y="130" width="58" height="20" rx="9" fill="#f1ede3"/>
  <rect x="354" y="130" width="58" height="20" rx="9" fill="#f6f3ec"/>
  <path d="M118 154 v30" stroke="#141414" stroke-width="4"/>
  <path d="M492 154 v30" stroke="#141414" stroke-width="4"/>
  <rect x="70" y="172" width="458" height="5" rx="2.5" fill="#e8a33d"/>
  <circle cx="188" cy="198" r="24" fill="#101010"/>
  <circle cx="188" cy="198" r="11" fill="#a7a296"/>
  <circle cx="392" cy="198" r="24" fill="#101010"/>
  <circle cx="392" cy="198" r="11" fill="#a7a296"/>
  <circle cx="84" cy="174" r="6" fill="#ffdba1"/>
</svg>